<svg width="24" height="24" viewBox="0 0 24 24" fill="none" xmlns="http://www.w3.org/2000/svg">
  <path d="M7.64 14.568c-.82 0-1.533.09-2.114.202a.583.583 0 1 1-.22-1.145c.64-.124 1.428-.224 2.334-.224.922 0 1.726.1 2.377.223a.583.583 0 0 1-.216 1.146 11.627 11.627 0 0 0-2.161-.202ZM5.526 10.114c.58-.112 1.294-.202 2.114-.202.837 0 1.568.09 2.16.203a.583.583 0 0 0 .217-1.146 12.79 12.79 0 0 0-2.377-.223c-.906 0-1.694.1-2.334.223a.583.583 0 1 0 .22 1.145Z" />
  <path fill-rule="evenodd" clip-rule="evenodd" d="M16.595 3.72a18.418 18.418 0 0 1 4.841.62.6.6 0 0 1 .446.58v1.437h.324c.314 0 .569.254.569.568V20.64a.569.569 0 0 1-.71.551 19.766 19.766 0 0 0-5.08-.604h-.001a20.004 20.004 0 0 0-4.734.604.568.568 0 0 1-.237.01 29.145 29.145 0 0 0-4.742-.43 29.495 29.495 0 0 0-5.254.43.569.569 0 0 1-.666-.561V6.925c0-.314.255-.568.569-.568h.392V4.92a.6.6 0 0 1 .458-.583 19.983 19.983 0 0 1 4.539-.566c1.93-.022 3.562.243 4.778.53a18.499 18.499 0 0 1 4.508-.58Zm-5.101 1.677a18.593 18.593 0 0 0-4.172-.426h-.001a18.8 18.8 0 0 0-3.81.426V18.84c1.073-.203 2.35-.36 3.796-.379a19.831 19.831 0 0 1 4.187.376V5.396Zm1.2 13.402a18.63 18.63 0 0 1 3.938-.468c1.61-.014 2.988.206 4.05.463V5.387c-.455-.108-.97-.21-1.54-.293v5.45c0 .32-.33.527-.617.387l-1.26-.61a.411.411 0 0 0-.387.005l-1.059.566a.432.432 0 0 1-.633-.381V4.986c-.956.083-1.795.235-2.492.4V18.8Z" />
</svg>
