<svg width="32" height="32" viewBox="0 0 32 32" fill="none" xmlns="http://www.w3.org/2000/svg">
<g clip-path="url(#clip0_4247_12293)">
<path d="M15.1826 0.28057C15.6639 -0.0935231 16.338 -0.0935236 16.8193 0.28057L28.8193 9.61455C29.1441 9.86716 29.334 10.2558 29.334 10.6673V25.3333C29.334 26.3942 28.9132 27.4123 28.1631 28.1624C27.4129 28.9125 26.3948 29.3333 25.334 29.3333H6.66797C5.60713 29.3333 4.58901 28.9125 3.83887 28.1624C3.08872 27.4123 2.66797 26.3942 2.66797 25.3333V10.6673C2.66797 10.2558 2.85784 9.86716 3.18262 9.61455L15.1826 0.28057ZM5.33398 11.3187V25.3333C5.33398 25.6869 5.47456 26.0266 5.72461 26.2767C5.97465 26.5267 6.31437 26.6673 6.66797 26.6673H10.668V14.6673C10.668 13.9309 11.2646 13.3333 12.001 13.3333H20.001C20.7374 13.3333 21.334 13.9309 21.334 14.6673V26.6673H25.334C25.6876 26.6673 26.0273 26.5267 26.2773 26.2767C26.5274 26.0266 26.668 25.6869 26.668 25.3333V11.3187L16.001 3.02276L5.33398 11.3187ZM13.334 26.6673H18.668V16.0003H13.334V26.6673Z" fill="#383838"/>
</g>
<defs>
<clipPath id="clip0_4247_12293">
<rect width="32" height="32" fill="white"/>
</clipPath>
</defs>
</svg>
