<svg width="32" height="32" viewBox="0 0 32 32" fill="none" xmlns="http://www.w3.org/2000/svg">
<path d="M13.3631 5.34825C13.318 5.14776 13.293 4.93724 13.293 4.72672C13.293 3.22301 14.511 2 16.0197 2C17.5284 2 18.7464 3.218 18.7464 4.72672C18.7464 5.00741 18.7063 5.27808 18.6261 5.53371" stroke="#1C1C73" stroke-width="2.66667" stroke-miterlimit="10"/>
<path d="M19.8864 25.1835C19.9516 25.4742 19.9917 25.7699 19.9917 26.0807C19.9917 28.246 18.2373 30.0004 16.072 30.0004C13.9067 30.0004 12.1523 28.246 12.1523 26.0807C12.1523 25.6797 12.2125 25.2888 12.3278 24.9229" stroke="#1C1C73" stroke-width="2.66667" stroke-miterlimit="10"/>
<path d="M28.6191 18.9014H4.05859V25.5828H28.6191V18.9014Z" stroke="#1C1C73" stroke-width="2.66667" stroke-miterlimit="10"/>
<path d="M16.1889 4.88867C21.8278 4.88867 26.4091 9.46996 26.4091 15.1089V18.9032H5.96875V15.1089C5.96875 9.46996 10.55 4.88867 16.1889 4.88867Z" stroke="#1C1C73" stroke-width="2.66667" stroke-miterlimit="10"/>
</svg>
