<svg width="32" height="32" viewBox="0 0 32 32" fill="none" xmlns="http://www.w3.org/2000/svg">
<g clip-path="url(#clip0_4247_12298)">
<path d="M19.9608 5.80267C19.9608 3.70251 18.2583 2 16.1581 2C14.058 2 12.3555 3.70251 12.3555 5.80267C12.3555 7.90282 14.058 9.60533 16.1581 9.60533C18.2583 9.60533 19.9608 7.90282 19.9608 5.80267Z" fill="#FEECFE" stroke="#E26AE2" stroke-width="2.66667" stroke-miterlimit="10"/>
<path d="M9.66783 11.8613C9.66783 9.7611 7.96532 8.05859 5.86517 8.05859C3.76501 8.05859 2.0625 9.7611 2.0625 11.8613C2.0625 13.9614 3.76501 15.6639 5.86517 15.6639C7.96532 15.6639 9.66783 13.9614 9.66783 11.8613Z" stroke="#E26AE2" stroke-width="2.66667" stroke-miterlimit="10"/>
<path d="M30.2538 11.8613C30.2538 9.7611 28.5513 8.05859 26.4511 8.05859C24.3509 8.05859 22.6484 9.7611 22.6484 11.8613C22.6484 13.9614 24.3509 15.6639 26.4511 15.6639C28.5513 15.6639 30.2538 13.9614 30.2538 11.8613Z" stroke="#E26AE2" stroke-width="2.66667" stroke-miterlimit="10"/>
<path d="M6.38862 18.8467C9.28462 18.8467 11.6366 21.1987 11.6366 24.0947V30.932H1.14062V24.0947C1.14062 21.1987 3.49262 18.8467 6.38862 18.8467Z" stroke="#FC94FF" stroke-width="2.66667" stroke-miterlimit="10"/>
<path d="M25.6367 18.8467C28.5327 18.8467 30.8847 21.1987 30.8847 24.0947V30.932H20.3887V24.0947C20.3887 21.1987 22.7407 18.8467 25.6367 18.8467Z" stroke="#FC94FF" stroke-width="2.66667" stroke-miterlimit="10"/>
<path d="M16.1582 12.9551C19.0542 12.9551 21.4062 15.3071 21.4062 18.2031V30.9337H10.9102V18.2031C10.9102 15.3071 13.2622 12.9551 16.1582 12.9551Z" fill="#FEECFE" stroke="#E26AE2" stroke-width="2.66667" stroke-miterlimit="10"/>
</g>
<defs>
<clipPath id="clip0_4247_12298">
<rect width="32" height="32" fill="white"/>
</clipPath>
</defs>
</svg>
