<svg width="24" height="24" viewBox="0 0 24 24" fill="none" xmlns="http://www.w3.org/2000/svg">
<g clip-path="url(#clip0_11310_8168)">
<path d="M24 8.58055H18.5475V6.56497C18.5475 5.9533 18.045 5.45954 17.4225 5.45954C16.8 5.45954 16.2975 5.9533 16.2975 6.56497V8.58055H11.2687L7.78497 1.47997C7.59372 1.08938 7.18122 0.846187 6.74622 0.853556C6.30372 0.864611 5.90997 1.12623 5.73747 1.52419L0.277466 14.0782H2.72247L4.15122 10.7914H9.85122L11.4637 14.0782H13.9612L12.3487 10.7914H20.7937C20.895 12.3206 20.7487 15.0584 18.885 17.5272C18.45 18.1057 17.9775 18.5958 17.4937 19.0159C17.4 18.9348 17.3025 18.8537 17.2125 18.7616C16.6837 18.2494 16.2637 17.6414 15.9637 16.9487C15.72 16.3849 15.06 16.1233 14.49 16.3628C13.9162 16.6023 13.65 17.2508 13.8937 17.8109C14.3025 18.7579 14.88 19.5944 15.6037 20.3055C15.0862 20.5782 14.5987 20.7809 14.1675 20.9319C13.5825 21.1383 13.2787 21.7684 13.485 22.3432C13.65 22.7964 14.0812 23.0765 14.5462 23.0765C14.67 23.0765 14.8012 23.0544 14.925 23.0102C15.7012 22.7375 16.635 22.3248 17.595 21.7057C18.765 22.2879 19.8787 22.4906 20.5837 22.5606C20.6212 22.5643 20.6587 22.568 20.6962 22.568C21.2662 22.568 21.7575 22.1442 21.8137 21.5731C21.8775 20.9651 21.4237 20.4234 20.8087 20.3608C20.4937 20.3313 20.0625 20.2613 19.5787 20.1176C19.965 19.7344 20.34 19.3106 20.6962 18.8353C22.9087 15.8985 23.1675 12.7517 23.0512 10.784H23.9962V8.57318L24 8.58055ZM5.11497 8.58055L6.83247 4.63046L8.77122 8.58055H5.11497Z" fill="#4A4A4A"/>
</g>
<defs>
<clipPath id="clip0_11310_8168">
<rect width="24" height="24" fill="white"/>
</clipPath>
</defs>
</svg>
