<svg width="24" height="24" viewBox="0 0 24 24" fill="none" xmlns="http://www.w3.org/2000/svg">
<g clip-path="url(#clip0_11311_47)">
<path d="M11.9862 0.000970734C14.0517 -0.0232016 16.1004 0.459884 18.0097 1.42187C19.7087 2.24875 21.2105 3.58287 22.3779 5.30175C23.4179 6.80833 23.9921 8.71344 24 10.6836C23.9865 12.6403 23.4126 14.5298 22.3779 16.0244C21.2125 17.7459 19.7101 19.0804 18.0097 19.9043C16.1009 20.8673 14.0515 21.348 11.9862 21.3174C10.9817 21.3148 9.97922 21.203 8.99109 20.9824C7.55104 22.2074 5.94627 23.1155 4.24984 23.665C3.82482 23.7927 3.33421 23.9042 2.78498 24H2.71955C2.58406 23.9909 2.45491 23.9263 2.35334 23.8164C2.29886 23.7624 2.25495 23.6943 2.22443 23.6172C2.19391 23.5399 2.17724 23.4549 2.17658 23.3691C2.16565 23.3333 2.16569 23.2937 2.17658 23.2578C2.16732 23.2079 2.16732 23.1554 2.17658 23.1055C2.18206 23.0686 2.18208 23.031 2.17658 22.9941V22.8818L2.23615 22.7705L2.35334 22.6582L2.44514 22.5469L2.51057 22.4746L2.90315 21.9482L3.36702 21.3496C3.50796 21.1567 3.63083 20.945 3.73323 20.7187C3.85831 20.44 4.00013 20.1726 4.15804 19.9199C4.32276 19.6414 4.43702 19.3232 4.49203 18.9863C3.18789 18.0882 2.06949 16.8374 1.22247 15.3301C0.364162 13.8409 -0.0634393 12.0444 0.00761906 10.2256C0.0787056 8.4069 0.643674 6.66876 1.61408 5.28613C2.78 3.57932 4.27489 2.25158 5.96372 1.42187C7.87251 0.458561 9.92088 -0.024688 11.9862 0.000970734ZM15.8886 7.11132C15.6738 6.89654 15.326 6.89654 15.1113 7.11132L11.9999 10.2227L8.88855 7.11132C8.67376 6.89654 8.32599 6.89654 8.1112 7.11132C7.89641 7.32611 7.89641 7.67388 8.1112 7.88867L11.2226 11L8.1112 14.1113C7.89641 14.3261 7.89641 14.6739 8.1112 14.8887C8.32599 15.1035 8.67376 15.1035 8.88855 14.8887L11.9999 11.7773L15.1113 14.8887C15.326 15.1035 15.6738 15.1035 15.8886 14.8887C16.1034 14.6739 16.1034 14.3261 15.8886 14.1113L12.7773 11L15.8886 7.88867C16.1034 7.67388 16.1034 7.32611 15.8886 7.11132Z" fill="#4A4A4A"/>
</g>
<defs>
<clipPath id="clip0_11311_47">
<rect width="24" height="24" fill="white"/>
</clipPath>
</defs>
</svg>
