<svg width="24" height="24" viewBox="0 0 24 24" fill="none" xmlns="http://www.w3.org/2000/svg">
<g clip-path="url(#clip0_11310_8167)">
<path d="M11.9862 0.000969113C14.0517 -0.0232032 16.1004 0.460859 18.0097 1.42284C19.7087 2.24979 21.2106 3.58377 22.3779 5.30273C23.4178 6.80929 23.9921 8.7135 24 10.6836C23.9866 12.6404 23.4126 14.5298 22.3779 16.0244C21.2125 17.7459 19.7101 19.0804 18.0097 19.9043C16.1009 20.8673 14.0515 21.348 11.9862 21.3174C10.9817 21.3148 9.97922 21.203 8.99109 20.9824C7.551 22.2074 5.94633 23.1155 4.24984 23.665C3.8248 23.7928 3.33425 23.9042 2.78498 24H2.71955C2.58407 23.9909 2.45491 23.9263 2.35334 23.8164C2.29887 23.7624 2.25492 23.6944 2.22443 23.6172C2.19391 23.5399 2.17724 23.4549 2.17658 23.3691C2.1657 23.3333 2.16564 23.2937 2.17658 23.2578C2.16735 23.208 2.16739 23.1562 2.17658 23.1064C2.1821 23.0695 2.1821 23.0311 2.17658 22.9941V22.8828L2.23615 22.7705L2.35334 22.6592L2.44514 22.5469L2.51057 22.4756L2.90315 21.9482L3.36702 21.3496C3.50799 21.1567 3.63081 20.945 3.73323 20.7188C3.85823 20.4402 4.00026 20.1735 4.15804 19.9209C4.32281 19.6423 4.43702 19.3233 4.49203 18.9863C3.18784 18.0882 2.0695 16.8375 1.22247 15.3301C0.364162 13.8409 -0.0634393 12.0444 0.00761906 10.2256C0.0787598 8.40694 0.643653 6.66871 1.61408 5.28613C2.78 3.57933 4.2749 2.25255 5.96372 1.42284C7.87258 0.459446 9.92078 -0.0246902 11.9862 0.000969113ZM16.3046 7.10351C16.0858 6.93531 15.7718 6.97649 15.6034 7.19531L10.9784 13.207L8.37976 10.1748C8.20011 9.96522 7.88434 9.94063 7.67467 10.1201C7.46509 10.2998 7.4405 10.6155 7.61998 10.8252L10.62 14.3252C10.718 14.4395 10.863 14.504 11.0136 14.5C11.1639 14.4959 11.3047 14.4239 11.3964 14.3047L16.3964 7.80468C16.5646 7.58581 16.5234 7.27183 16.3046 7.10351Z" fill="#4A4A4A"/>
</g>
<defs>
<clipPath id="clip0_11310_8167">
<rect width="24" height="24" fill="white"/>
</clipPath>
</defs>
</svg>
