<svg width="24" height="24" viewBox="0 0 24 24" fill="none" xmlns="http://www.w3.org/2000/svg">
<path d="M23.595 11.8416C23.5238 11.4141 23.2388 11.0604 22.83 10.8946L19.38 9.51279V4.59729C19.38 3.31499 18.3188 2.27588 17.0175 2.27588H2.75251C1.44751 2.27588 0.390015 3.31867 0.390015 4.59729V13.4813C0.390015 14.7636 1.45126 15.8027 2.75251 15.8027H8.52001V19.8855H3.79876V22.0963H15.0675V19.8855H10.77V15.8027H14.5388L14.9438 17.5088C15.045 17.9325 15.3563 18.2642 15.7763 18.4005C15.9075 18.441 16.0388 18.4631 16.17 18.4631C16.4625 18.4631 16.7513 18.36 16.98 18.1683L17.1338 18.0394L19.0463 14.6899L23.0363 13.0907L23.175 12.9765C23.5125 12.6964 23.67 12.2727 23.5988 11.8416H23.595ZM2.75251 13.5882C2.68876 13.5882 2.64001 13.5366 2.64001 13.4776V4.59361C2.64001 4.53097 2.69251 4.48306 2.75251 4.48306H17.0138C17.0775 4.48306 17.1263 4.53465 17.1263 4.59361V8.61002L14.625 7.60776C14.19 7.43457 13.695 7.51195 13.3388 7.81042C12.9788 8.10889 12.825 8.57686 12.93 9.03009L14.01 13.5918H2.75251V13.5882ZM19.38 12.1658L17.4675 12.9323L16.5488 14.5388L16.3238 13.5882L15.5588 10.3677L17.13 10.9978L19.38 11.9005L19.7138 12.0332L19.38 12.1658Z" fill="#4A4A4A"/>
</svg>
