<svg width="24" height="24" viewBox="0 0 24 24" fill="none" xmlns="http://www.w3.org/2000/svg">
<path d="M13.695 12.5085V2.46376C13.695 2.00316 13.4625 1.58309 13.0687 1.33253C12.6787 1.08196 12.1875 1.04511 11.7637 1.23304L5.45999 3.98926C4.97624 4.19929 4.66499 4.65252 4.64624 5.17207C4.62749 5.69162 4.90499 6.16696 5.36999 6.41016L11.445 9.60855V12.4274C6.07499 12.5343 1.73999 16.8528 1.73999 22.1552V23.4744H22.2787V22.1552C22.2787 17.2287 18.5325 13.1496 13.695 12.5122V12.5085ZM8.01374 5.28998L11.445 3.79028V7.09921L8.01374 5.28998ZM4.04249 21.2635C4.48499 17.5972 7.61999 14.7378 11.445 14.642V16.7828H13.695V14.7488C16.995 15.3163 19.5787 17.9656 19.9762 21.2635H4.04249Z" fill="#4A4A4A"/>
</svg>
