<svg width="24" height="24" viewBox="0 0 24 24" fill="none" xmlns="http://www.w3.org/2000/svg">
<path d="M10.6813 20.8384C10.6814 17.4439 13.4352 14.6902 16.8297 14.69C16.8683 14.69 16.9066 14.6926 16.944 14.6968C20.2862 14.7577 22.979 17.4857 22.9791 20.8423V21.0904C22.9789 22.4525 21.8706 23.5601 20.5084 23.5601H11.6813C11.129 23.5601 10.6813 23.1124 10.6813 22.5601V20.8384ZM12.6813 21.5601H20.5084C20.766 21.5601 20.9789 21.3479 20.9791 21.0904V20.8423C20.979 18.5522 19.1199 16.6939 16.8297 16.6939C16.8123 16.6939 16.7951 16.6919 16.778 16.691C14.5118 16.7189 12.6814 18.5658 12.6813 20.8384V21.5601Z" fill="#383838"/>
<path d="M18.8108 9.62653C18.8108 8.4537 17.8605 7.50265 16.6877 7.5025C15.5148 7.5025 14.5637 8.45361 14.5637 9.62653C14.5639 10.7993 15.5149 11.7496 16.6877 11.7496C17.8604 11.7494 18.8106 10.7992 18.8108 9.62653ZM20.8108 9.62653C20.8106 11.9038 18.965 13.7494 16.6877 13.7496C14.4104 13.7496 12.5639 11.9039 12.5637 9.62653C12.5637 7.34904 14.4103 5.5025 16.6877 5.5025C18.9651 5.50265 20.8108 7.34913 20.8108 9.62653Z" fill="#383838"/>
<path d="M2.12744 21.1317C2.12744 18.2163 4.49237 15.8563 7.40283 15.8563C8.01734 15.8563 8.61001 15.9627 9.16064 16.157C9.68114 16.341 9.95363 16.9118 9.77002 17.4324C9.58621 17.9532 9.01543 18.2266 8.49463 18.0428C8.15301 17.9222 7.78552 17.8563 7.40283 17.8563C5.5958 17.8563 4.12744 19.322 4.12744 21.1317C4.12766 21.3667 4.32109 21.5603 4.55615 21.5604H11.6812C12.2334 21.5604 12.6812 22.0081 12.6812 22.5604C12.681 23.1125 12.2333 23.5604 11.6812 23.5604H4.55615C3.21652 23.5603 2.12765 22.4712 2.12744 21.1317Z" fill="#383838"/>
<path d="M8.61914 11.4447C8.61899 10.6675 7.98819 10.0375 7.21094 10.0375C6.43381 10.0376 5.80386 10.6676 5.80371 11.4447C5.80371 12.222 6.43372 12.8528 7.21094 12.8529C7.98828 12.8529 8.61914 12.222 8.61914 11.4447ZM10.6191 11.4447C10.6191 13.3266 9.09285 14.8529 7.21094 14.8529C5.32915 14.8528 3.80371 13.3265 3.80371 11.4447C3.80386 9.56301 5.32924 8.03762 7.21094 8.03748C9.09276 8.03748 10.619 9.56292 10.6191 11.4447Z" fill="#383838"/>
<path d="M12.53 17.006V5.83124C12.53 5.27895 12.9777 4.83124 13.53 4.83124C14.0823 4.83124 14.53 5.27895 14.53 5.83124V17.006L14.5251 17.1086C14.4739 17.6128 14.0478 18.006 13.53 18.006C13.0123 18.006 12.5862 17.6128 12.5349 17.1086L12.53 17.006Z" fill="#383838"/>
<path d="M13.5333 0.200012C14.0856 0.200012 14.5333 0.647727 14.5333 1.20001V5.49396C14.5332 6.04615 14.0855 6.49396 13.5333 6.49396H7.12122C6.569 6.49396 6.12132 6.04615 6.12122 5.49396V3.20978C6.12134 1.53082 7.50129 0.200012 9.16907 0.200012H13.5333ZM8.12122 4.49396H12.5333V2.20001H9.16907C8.57201 2.20001 8.12135 2.66894 8.12122 3.20978V4.49396Z" fill="#383838"/>
</svg>
