<svg width="24" height="24" viewBox="0 0 24 24" fill="none" xmlns="http://www.w3.org/2000/svg">
<g clip-path="url(#clip0_11311_48)">
<rect width="24" height="24" fill="white"/>
<path d="M24 10.6832C23.9866 12.6401 23.4129 14.5296 22.3782 16.0243C21.2127 17.7459 19.7101 19.0804 18.0096 19.9044C16.1008 20.8674 14.0519 21.3481 11.9866 21.3175C10.982 21.315 9.97962 21.2027 8.99141 20.9822C7.5513 22.2072 5.94666 23.1151 4.25014 23.6647C3.82506 23.7924 3.33458 23.9042 2.78525 24H2.71985C2.5843 23.991 2.45524 23.9263 2.35363 23.8164C2.29905 23.7623 2.25493 23.6942 2.22441 23.6169C2.19388 23.5396 2.17771 23.4551 2.17705 23.3693C2.16602 23.3332 2.16602 23.2936 2.17705 23.2575C2.16779 23.2076 2.16779 23.1558 2.17705 23.1058C2.18258 23.0689 2.18258 23.031 2.17705 22.9941V22.8823L2.23591 22.7705L2.35363 22.6587L2.44518 22.547L2.51058 22.4751L2.90296 21.9482L3.36728 21.3494C3.50824 21.1565 3.63108 20.945 3.7335 20.7187C3.85858 20.4399 4.00067 20.173 4.15858 19.9203C4.32335 19.6418 4.4371 19.3232 4.4921 18.9862C3.18783 18.088 2.06931 16.8373 1.22226 15.3297C0.363951 13.8405 -0.063436 12.0446 0.00762215 10.2258C0.0786803 8.40697 0.644133 6.6689 1.61464 5.28619C2.78056 3.57937 4.2747 2.25179 5.96353 1.42207C7.87248 0.458616 9.92104 -0.024728 11.9866 0.000973729C14.052 -0.0231986 16.1003 0.460087 18.0096 1.42207C19.7087 2.24901 21.2107 3.58308 22.3782 5.30216C23.4181 6.80874 23.9921 8.71302 24 10.6832Z" fill="#4A4A4A"/>
</g>
<defs>
<clipPath id="clip0_11311_48">
<rect width="24" height="24" fill="white"/>
</clipPath>
</defs>
</svg>
