<svg width="24" height="24" viewBox="0 0 24 24" fill="none" xmlns="http://www.w3.org/2000/svg">
<path d="M14.1151 9.48703C15.5888 9.48703 17.7488 9.15172 19.6501 7.54515C21.8813 5.66223 22.3763 3.18237 22.4888 2.20222L22.5788 1.42104L21.8588 1.08204C19.2901 -0.119197 16.2488 0.227172 14.1038 1.97007C12.3113 3.42925 11.6813 5.46325 11.5613 7.01454C11.3401 6.72713 11.0926 6.4434 10.8076 6.16704C8.52756 3.96354 5.13006 3.25975 1.93506 4.33202L0.997559 4.64523L1.19256 5.5959C1.43256 6.76029 2.31006 9.69706 5.27256 11.7458C7.44006 13.2492 9.69756 13.5513 11.1601 13.5513C11.2051 13.5513 11.2501 13.5513 11.2951 13.5513V14.5868H2.61381V20.0108C2.61381 21.9969 4.25631 23.6108 6.27756 23.6108H17.5951C19.6163 23.6108 21.2588 21.9969 21.2588 20.0108V14.5868H13.5488V9.47229C13.7251 9.48335 13.9126 9.49072 14.1188 9.49072L14.1151 9.48703ZM15.5401 3.67244C16.8001 2.64807 18.5176 2.33118 20.1001 2.78441C19.8713 3.6577 19.3576 4.88105 18.1876 5.87226C16.6538 7.1693 14.8726 7.32775 13.8038 7.27616C13.8563 6.33286 14.1676 4.79262 15.5438 3.67613L15.5401 3.67244ZM6.57381 9.94026C4.90131 8.77955 4.08381 7.25774 3.69006 6.16336C5.73381 5.80962 7.82631 6.38444 9.23256 7.74413C10.4401 8.91221 10.8413 10.3456 10.9688 11.3405C9.83256 11.3147 8.17131 11.0457 6.57756 9.94026H6.57381ZM19.0051 20.0071C19.0051 20.7735 18.3713 21.3962 17.5913 21.3962H6.27381C5.49381 21.3962 4.86006 20.7735 4.86006 20.0071V16.794H19.0013V20.0071H19.0051Z" fill="#4A4A4A"/>
</svg>
