<svg width="24" height="24" viewBox="0 0 24 24" fill="none" xmlns="http://www.w3.org/2000/svg">
<path d="M22.6088 12.4569L21.4913 13.2639C21.4988 13.1902 21.5101 13.1128 21.5176 13.0391C21.5176 13.017 21.5701 12.4937 21.5701 11.9963C21.5701 9.84439 20.9101 7.83987 19.7813 6.16698C19.7851 6.15224 19.7926 6.1375 19.7963 6.12644L19.7401 6.10433C17.8051 3.28548 14.5276 1.42834 10.8151 1.42834C4.88256 1.42834 0.0600586 6.16698 0.0600586 11.9963C0.0600586 17.8256 4.62006 22.299 10.3238 22.5532V22.5643C10.4476 22.5716 10.5713 22.5753 10.6951 22.5753C11.7713 22.5753 12.7463 22.2842 13.5301 21.7241C14.6363 20.9319 15.3563 19.598 15.5026 18.0578C15.6563 16.4733 15.1801 14.9331 14.2313 13.9382C12.9976 12.6485 11.1826 12.4901 10.4926 12.4274C9.42756 12.3353 8.71506 12.5159 8.19756 12.6485C7.72881 12.7664 7.53756 12.818 7.16256 12.7038C6.80256 12.5969 6.64131 12.4458 6.34506 12.1695C5.99256 11.8415 5.51256 11.392 4.65006 11.0898C3.94506 10.843 3.19131 10.7582 2.39256 10.8356C2.41881 10.644 2.45256 10.4561 2.49381 10.2681C2.56506 10.2681 2.63256 10.2645 2.70756 10.2608C4.98756 10.1576 5.58006 9.9881 6.02631 9.80386C6.54006 9.59751 7.49256 9.21061 8.07006 8.2931C8.83131 7.08817 8.74131 5.47792 7.90506 4.14403C8.29506 4.00401 8.70006 3.88978 9.11631 3.80871C9.57006 5.12418 10.5713 7.10291 12.6976 8.26362C13.2638 8.57314 14.3851 9.18481 15.7088 9.18481C16.2038 9.18481 16.7251 9.10006 17.2613 8.88266C17.7001 8.70211 18.0713 8.45891 18.3826 8.19361C18.9826 9.33589 19.3201 10.6329 19.3201 12.0037C19.3201 12.3979 19.2788 12.8364 19.2788 12.8475C19.2563 13.1202 19.2188 13.3891 19.1738 13.6618L17.9663 12.2321L16.2338 13.6434L18.7913 16.6723C19.0126 16.9339 19.3351 17.0739 19.6576 17.0739C19.8901 17.0739 20.1226 17.0039 20.3213 16.8602L23.9438 14.2514L22.6126 12.468L22.6088 12.4569ZM3.88881 13.1681C4.30506 13.3155 4.51131 13.5071 4.79256 13.7724C5.16756 14.1224 5.63256 14.5572 6.49881 14.8188C7.48131 15.1136 8.19006 14.9331 8.75631 14.7894C9.19506 14.6788 9.60756 14.572 10.2901 14.6309C10.7813 14.6751 11.9363 14.7746 12.5813 15.4526C13.0876 15.9832 13.3463 16.9007 13.2526 17.8514C13.1663 18.7579 12.7801 19.5169 12.1951 19.937C11.7601 20.2465 11.2426 20.346 10.8076 20.3608C6.48381 20.3571 2.91006 17.1697 2.37381 13.0649C2.92881 12.9801 3.43506 13.017 3.88131 13.1754L3.88881 13.1681ZM6.15756 7.1287C5.96256 7.43823 5.52006 7.61878 5.16756 7.76249C5.04006 7.81407 4.76631 7.92462 3.34131 8.01305C3.96756 6.88551 4.84881 5.91641 5.90631 5.17945C6.37131 5.83166 6.48381 6.61283 6.15756 7.1287ZM16.3913 6.83392C15.5101 7.19503 14.5838 6.76023 13.7851 6.32542C12.5663 5.66216 11.8613 4.57146 11.4638 3.66501C13.6801 3.83082 15.6601 4.83308 17.0776 6.35121C16.8938 6.54282 16.6688 6.71969 16.3913 6.83392Z" fill="#4A4A4A"/>
</svg>
