<svg width="24" height="24" viewBox="0 0 24 24" fill="none" xmlns="http://www.w3.org/2000/svg">
<g clip-path="url(#clip0_11311_103)">
<path d="M19.305 2.18378C18.8813 1.68265 18.2663 1.39893 17.625 1.39893C16.9838 1.39893 16.3688 1.68634 15.945 2.18378C14.9888 3.30764 13.6463 3.96353 12.2663 3.97827L8.92878 4.01881C7.47753 4.03723 6.28128 5.20531 6.11628 6.68659L0.405033 14.9884C-0.149967 15.7954 -0.108717 16.8898 0.502533 17.6488L3.86253 21.82C4.22253 22.2658 4.72503 22.5385 5.28378 22.5901C5.34753 22.5975 5.41128 22.5975 5.47503 22.5975C5.95878 22.5975 6.42003 22.428 6.79878 22.1074C7.50753 21.5031 8.35128 21.1825 9.23628 21.1752L14.8088 21.1273L15.0488 21.002C15.3938 20.8214 16.2413 20.2798 16.6013 19.1338C16.755 18.6437 16.7738 18.1905 16.74 17.8183C17.1338 17.3983 17.5613 16.7718 17.7788 15.917C17.8725 15.5411 17.9213 15.1579 17.9175 14.771C18.2513 14.4688 18.6075 14.034 18.8438 13.4334C18.9938 13.0539 19.065 12.6854 19.0875 12.339C19.77 12.2764 20.4075 11.9485 20.8688 11.4068L23.4113 8.42212L24.0038 7.69253L19.3088 2.1801L19.305 2.18378ZM16.77 12.6486C16.6163 13.0392 16.3388 13.2418 16.1888 13.3303L15.5475 13.7061L15.66 14.432C15.7088 14.7526 15.6975 15.0842 15.6188 15.39C15.4575 16.0275 15.0675 16.4034 14.85 16.5729L14.25 17.0371L14.475 17.7557C14.5088 17.8699 14.58 18.1684 14.475 18.4926C14.4075 18.71 14.2838 18.8574 14.1825 18.9532L9.21378 18.9974C7.87878 19.0085 6.56628 19.4838 5.49378 20.335L2.24253 16.3002C2.24253 16.3002 2.23128 16.2339 2.24253 16.2154L6.09378 10.6183V11.989C6.09378 13.7245 7.32378 15.1984 8.89128 15.3495C8.98878 15.3606 9.08253 15.3643 9.17628 15.3643C9.90378 15.3643 10.6013 15.0989 11.16 14.5978C11.8575 13.9788 12.255 13.0686 12.255 12.1032V10.434H16.0013L16.6688 11.2189C16.7625 11.4215 17.0063 12.0406 16.7625 12.6523L16.77 12.6486ZM19.1625 10.0139C18.9825 10.2277 18.7275 10.224 18.5475 10.0139L17.0513 8.24894H11.1713L10.0388 8.27104V12.0995C10.0388 12.4496 9.90378 12.7702 9.67128 12.9765C9.55503 13.0797 9.36753 13.1976 9.10878 13.1718C8.68128 13.1313 8.31753 12.5859 8.31753 11.9853V7.04033C8.31753 6.5871 8.61003 6.20388 8.95878 6.2002L12.2963 6.15966C14.3063 6.13756 16.245 5.21268 17.6288 3.61348L21.12 7.71464L19.1625 10.0139Z" fill="#4A4A4A"/>
</g>
<defs>
<clipPath id="clip0_11311_103">
<rect width="24" height="24" fill="white"/>
</clipPath>
</defs>
</svg>
