<svg width="24" height="24" viewBox="0 0 24 24" fill="none" xmlns="http://www.w3.org/2000/svg">
<path d="M12 1.3031C5.88375 1.3031 0.911255 6.19281 0.911255 12.2027C0.911255 18.2126 5.88751 23.0986 12 23.0986C18.1125 23.0986 23.0888 18.2089 23.0888 12.2027C23.0888 6.19649 18.1163 1.3031 12 1.3031ZM12.705 9.23644C15.51 9.14063 17.7338 8.10889 19.1925 7.16559C19.8863 8.11626 20.3888 9.21064 20.6438 10.3935C18.0113 11.1931 15.2888 11.6205 12.5325 11.661C12.555 10.8504 12.6113 10.0434 12.705 9.24012V9.23644ZM13.0538 7.00346C13.2713 5.89434 13.56 4.79996 13.9125 3.72032C15.3075 4.02247 16.5788 4.64888 17.64 5.51849C16.53 6.18912 14.9663 6.85607 13.05 7.00346H13.0538ZM10.7813 6.92239C9.02625 6.65709 7.62001 5.96804 6.62626 5.31214C8.02126 4.2583 9.74625 3.6024 11.6175 3.52502C11.2725 4.6452 10.995 5.77643 10.7813 6.92239ZM10.4588 9.10747C10.3688 9.93655 10.3088 10.7693 10.2863 11.6058C7.935 11.462 5.6175 11.0383 3.3675 10.3382C3.6525 9.06325 4.2225 7.89518 5.01 6.8966C6.23625 7.76252 8.085 8.75005 10.4588 9.11116V9.10747ZM10.305 13.8203C10.3275 14.3288 10.3688 14.8373 10.4175 15.3458C8.07751 15.7069 6.25126 16.6797 5.03251 17.5346C3.93751 16.1565 3.255 14.4504 3.16875 12.5933C5.49375 13.275 7.8825 13.684 10.3013 13.8203H10.305ZM10.71 17.5383C10.905 18.6621 11.1563 19.7749 11.4788 20.873C9.675 20.7698 8.0175 20.1323 6.66375 19.119C7.6425 18.4779 9.01125 17.8109 10.7138 17.5383H10.71ZM12.9788 17.4388C14.91 17.5714 16.485 18.2384 17.61 18.909C16.5188 19.7897 15.2138 20.4198 13.7813 20.7072C13.4475 19.6312 13.1813 18.5405 12.9788 17.4351V17.4388ZM12.6638 15.2095C12.6188 14.7636 12.585 14.3178 12.5625 13.8682C15.3675 13.8277 18.1425 13.4187 20.8313 12.6449C20.7413 14.3657 20.1413 15.9538 19.1738 17.2693C17.7038 16.326 15.4763 15.2905 12.6638 15.2058V15.2095Z" fill="#4A4A4A"/>
</svg>
