<svg width="24" height="24" viewBox="0 0 24 24" fill="none" xmlns="http://www.w3.org/2000/svg">
<path fill-rule="evenodd" clip-rule="evenodd" d="M2.29675 1.66669C1.02829 1.66669 0 2.69498 0 3.96343V5.41669V15C0 16.3807 1.11929 17.5 2.5 17.5H7.91667C8.3769 17.5 8.75 17.1269 8.75 16.6667C8.75 16.2064 8.3769 15.8334 7.91667 15.8334H2.5C2.03976 15.8334 1.66667 15.4603 1.66667 15L1.66667 5.41669V3.96343C1.66667 3.61545 1.94876 3.33335 2.29675 3.33335H7.91667C9.06726 3.33335 10 4.26609 10 5.41669C10 5.87692 10.3731 6.25002 10.8333 6.25002H17.5C17.9602 6.25002 18.3333 6.62312 18.3333 7.08335C18.3333 7.54359 18.7064 7.91669 19.1667 7.91669C19.6269 7.91669 20 7.54359 20 7.08335C20 5.70264 18.8807 4.58335 17.5 4.58335H11.5737C11.1948 2.91336 9.70132 1.66669 7.91667 1.66669H2.29675ZM19.6722 9.61302C19.9976 9.93846 19.9976 10.4661 19.6722 10.7915L16.7258 13.7379L19.6722 16.6842C19.9976 17.0097 19.9976 17.5373 19.6722 17.8627C19.3467 18.1882 18.8191 18.1882 18.4937 17.8627L15.5473 14.9164L12.6011 17.8626C12.2757 18.188 11.748 18.188 11.4226 17.8626C11.0972 17.5372 11.0972 17.0095 11.4226 16.6841L14.3688 13.7379L11.4226 10.7917C11.0972 10.4662 11.0972 9.93859 11.4226 9.61315C11.748 9.28772 12.2757 9.28772 12.6011 9.61315L15.5473 12.5594L18.4937 9.61302C18.8191 9.28758 19.3468 9.28758 19.6722 9.61302Z" fill="#4A4A4A"/>
</svg>
