<svg width="24" height="24" viewBox="0 0 24 24" fill="none" xmlns="http://www.w3.org/2000/svg">
<path d="M21.1322 7.76624C21.1322 7.42591 20.8563 7.15002 20.516 7.15002H3.85876C3.51845 7.15005 3.24257 7.42592 3.24255 7.76624V21.0035C3.24255 21.3439 3.51844 21.6197 3.85876 21.6198H20.516C20.8563 21.6198 21.1322 21.3439 21.1322 21.0035V7.76624ZM23.1322 21.0035C23.1322 22.4485 21.9609 23.6198 20.516 23.6198H3.85876C2.41387 23.6197 1.24255 22.4484 1.24255 21.0035V7.76624C1.24257 6.32135 2.41388 5.15005 3.85876 5.15002H20.516C21.9609 5.15002 23.1322 6.32134 23.1322 7.76624V21.0035Z" fill="#383838"/>
<path d="M12.7457 0.547913C15.6286 0.595056 18.2111 2.48441 19.1363 5.26373C19.3107 5.78765 19.0273 6.35385 18.5035 6.52838C17.9795 6.70279 17.4133 6.41959 17.2389 5.89557C16.58 3.91618 14.7418 2.58171 12.7135 2.54791L12.5162 2.54889C10.4949 2.59841 8.68928 3.93513 8.03671 5.89557C7.86234 6.41954 7.29604 6.70265 6.77206 6.52838C6.24804 6.35398 5.96388 5.78776 6.13828 5.26373C7.05334 2.51461 9.59052 0.619502 12.4664 0.548889L12.7457 0.547913Z" fill="#383838"/>
<path d="M11.1837 18.0261V10.74C11.1837 10.1877 11.6314 9.73999 12.1837 9.73999C12.736 9.73999 13.1837 10.1877 13.1837 10.74V18.0261C13.1837 18.5784 12.736 19.0261 12.1837 19.0261C11.6314 19.0261 11.1837 18.5784 11.1837 18.0261Z" fill="#383838"/>
<path d="M15.8286 13.3812L15.9312 13.3861C16.4353 13.4374 16.8286 13.8635 16.8286 14.3812C16.8286 14.8989 16.4353 15.3251 15.9312 15.3763L15.8286 15.3812H8.54248C7.9902 15.3812 7.54248 14.9335 7.54248 14.3812C7.54248 13.8289 7.9902 13.3812 8.54248 13.3812H15.8286Z" fill="#383838"/>
</svg>
