<svg width="24" height="24" viewBox="0 0 24 24" fill="none" xmlns="http://www.w3.org/2000/svg">
<path d="M22.8263 20.5119L18.1688 10.6146C18.66 10.2792 18.9788 9.89235 19.1813 9.57177C20.07 8.14576 19.5788 6.58341 19.3425 5.83172C18.4763 3.07918 16.0538 1.53158 14.6888 0.849891L13.6013 0.308228L13.14 1.41366C12.5625 2.79914 12.2063 4.23621 12.0863 5.67696C11.9325 7.5304 11.7975 9.1296 13.035 10.3235C13.7175 10.983 14.715 11.3405 15.7463 11.3405C15.8438 11.3405 15.9413 11.3368 16.035 11.3294L17.265 13.9456C16.9313 13.7798 16.5863 13.6287 16.2338 13.474C15.2963 13.0613 14.2313 12.5933 13.17 11.8084C11.9363 10.8946 11.3213 9.92551 10.7813 9.07064C10.08 7.96521 9.35627 6.81924 7.62377 6.5134C6.34502 6.28494 5.00627 6.58341 3.64127 7.39406C0.982521 8.98589 0.423771 11.8895 0.315021 12.7407C-0.292479 17.5162 4.29377 22.1774 8.79002 23.3787C9.73877 23.6329 10.7175 23.7545 11.6813 23.7545C13.7475 23.7545 15.7388 23.187 17.1825 22.1258C17.7713 21.691 19.1138 20.6998 19.6088 18.9495L20.7825 21.4405L22.8263 20.5119ZM17.4863 18.2015C17.2388 19.3217 16.3275 19.996 15.8363 20.3571C14.28 21.5031 11.6888 21.8605 9.38252 21.2452C5.78627 20.2871 2.10002 16.5618 2.55002 13.0134C2.60627 12.5859 2.97002 10.3898 4.80752 9.29541C5.09252 9.12591 5.87627 8.65794 6.78377 8.65794C6.92627 8.65794 7.07252 8.669 7.22252 8.69479C7.94252 8.82376 8.23127 9.23646 8.86877 10.2461C9.48002 11.2115 10.245 12.4164 11.8125 13.5808C13.0763 14.5168 14.3175 15.0621 15.315 15.5006C16.7738 16.1417 17.34 16.4439 17.5013 17.0814C17.6138 17.5346 17.52 18.0468 17.4863 18.1942V18.2015ZM14.91 8.9601C14.7938 8.90483 14.6925 8.8385 14.61 8.75743C14.145 8.30789 14.1975 7.41249 14.325 5.86488C14.3925 5.06528 14.5425 4.26568 14.7825 3.47714C15.7238 4.12198 16.755 5.1095 17.19 6.48761C17.3588 7.02927 17.6175 7.84361 17.2613 8.41475C17.2388 8.44791 17.2125 8.48476 17.1863 8.52161C17.04 8.70585 16.785 8.91588 16.3388 9.05222C15.8625 9.19592 15.3113 9.15171 14.9138 8.95641L14.91 8.9601Z" fill="#4A4A4A"/>
<path d="M7.05375 12.1953C7.05375 11.5615 6.52875 11.0457 5.88375 11.0457C5.23875 11.0457 4.71375 11.5615 4.71375 12.1953C4.71375 12.8291 5.23875 13.3413 5.88375 13.3413C6.52875 13.3413 7.05375 12.8254 7.05375 12.1953Z" fill="#4A4A4A"/>
<path d="M6.92244 17.7225C7.56861 17.7225 8.09244 17.2078 8.09244 16.5729C8.09244 15.9379 7.56861 15.4232 6.92244 15.4232C6.27627 15.4232 5.75244 15.9379 5.75244 16.5729C5.75244 17.2078 6.27627 17.7225 6.92244 17.7225Z" fill="#4A4A4A"/>
<path d="M10.7399 17.7003C10.0949 17.7003 9.56995 18.2162 9.56995 18.85C9.56995 19.4838 10.0949 19.9996 10.7399 19.9996C11.3849 19.9996 11.9099 19.4838 11.9099 18.85C11.9099 18.2162 11.3849 17.7003 10.7399 17.7003Z" fill="#4A4A4A"/>
</svg>
