<svg width="24" height="24" viewBox="0 0 24 24" fill="none" xmlns="http://www.w3.org/2000/svg">
<g clip-path="url(#clip0_11310_8169)">
<path d="M12.4012 0.99353H11.6025C5.60247 0.99353 0.719971 5.78743 0.719971 11.6831V12.3169C0.719971 18.2125 5.59872 23.0064 11.5987 23.0064H23.2762V11.6831C23.2762 5.78743 18.3975 0.99353 12.3975 0.99353H12.4012ZM21.03 20.7955H11.6025C6.84372 20.7955 2.97372 16.9929 2.97372 12.3169V11.6831C2.97372 7.00709 6.84372 3.2044 11.6025 3.2044H12.4012C17.16 3.2044 21.03 7.00709 21.03 11.6831V20.7955Z" fill="#4A4A4A"/>
<path d="M14.1713 8.3005C14.1713 7.68883 13.6688 7.19507 13.0463 7.19507C12.4238 7.19507 11.9213 7.68883 11.9213 8.3005V8.79795H9.01501C8.39251 8.79795 7.89001 9.29171 7.89001 9.90338C7.89001 10.5151 8.39251 11.0088 9.01501 11.0088H11.2838C11.2125 12.2285 10.8563 13.9382 9.54001 15.0916C9.24751 15.3495 8.91376 15.5669 8.55376 15.7474C7.99876 16.0201 7.77376 16.6871 8.05501 17.2324C8.25376 17.6193 8.64751 17.8404 9.06001 17.8404C9.22876 17.8404 9.40126 17.8036 9.56626 17.7225C10.1025 17.4572 10.5975 17.1292 11.0363 16.7423C11.9475 15.9464 12.5325 14.9921 12.9113 14.0377C13.4775 14.9479 14.2463 15.8396 15.2588 16.337C15.42 16.4181 15.5925 16.4549 15.7613 16.4549C16.1738 16.4549 16.5713 16.2302 16.77 15.8433C17.0475 15.2979 16.8225 14.6346 16.2675 14.362C15.1238 13.7982 14.31 12.0295 13.9538 11.0088H17.3288V8.79795H14.175V8.3005H14.1713Z" fill="#4A4A4A"/>
</g>
<defs>
<clipPath id="clip0_11310_8169">
<rect width="24" height="24" fill="white"/>
</clipPath>
</defs>
</svg>
