<svg width="24" height="24" viewBox="0 0 24 24" fill="none" xmlns="http://www.w3.org/2000/svg">
<g clip-path="url(#clip0_11311_98)">
<path d="M15.5737 10.5298V0.234497H4.15125C1.87875 0.234497 0.0262451 2.0511 0.0262451 4.28776V15.5116H10.5525V23.7176H20.2612C22.3087 23.7176 23.9737 22.0816 23.9737 20.0697V10.5298H15.5737ZM2.27625 13.3007V4.28776C2.27625 3.27076 3.11625 2.44537 4.15125 2.44537H13.3237V10.5298H10.5562V13.3007H2.27625ZM21.7237 20.0697C21.7237 20.8619 21.0675 21.5067 20.2612 21.5067H12.8025V12.7406H21.7237V20.0697Z" fill="#4A4A4A"/>
<path d="M11.0025 6.98868H8.69996V4.72253H6.44996V6.98868H4.14746V9.19954H6.44996V11.462H8.69996V9.19954H11.0025V6.98868Z" fill="#4A4A4A"/>
<path d="M20.3924 15.7953H14.6324V18.0062H20.3924V15.7953Z" fill="#4A4A4A"/>
</g>
<defs>
<clipPath id="clip0_11311_98">
<rect width="24" height="24" fill="white"/>
</clipPath>
</defs>
</svg>
