<svg width="24" height="24" viewBox="0 0 24 24" fill="none" xmlns="http://www.w3.org/2000/svg">
<path d="M17.5987 0.37085H1.41748V20.1287C1.41748 22.0447 3.00373 23.6034 4.95373 23.6034H22.53V21.3925H19.5562V18.8611H22.53V17.7557H22.5975V5.28267C22.5975 2.57435 20.355 0.37085 17.5987 0.37085ZM17.5987 2.58172C19.1137 2.58172 20.3475 3.79401 20.3475 5.28267V16.6539H4.95373C4.49998 16.6539 4.06498 16.7423 3.66748 16.8971V2.58172H17.5987ZM17.3062 21.3962H4.95373C4.24498 21.3962 3.66748 20.8288 3.66748 20.1323C3.66748 19.4359 4.24498 18.8685 4.95373 18.8685H17.3062V21.3999V21.3962Z" fill="#4A4A4A"/>
<path d="M17.67 4.8147H7.17371V7.02557H17.67V4.8147Z" fill="#4A4A4A"/>
<path d="M17.67 9.67859H7.17371V11.8895H17.67V9.67859Z" fill="#4A4A4A"/>
</svg>
