<svg width="221" height="74" viewBox="0 0 221 74" fill="none" xmlns="http://www.w3.org/2000/svg">
<path d="M125.984 114.984C136.216 98.0656 152.412 86.0684 171.534 81.2172C190.667 76.3491 210.537 79.1937 227.475 89.2344L281.983 121.547L314.963 65.9139L259.669 33.1354C194.377 -5.00123 110.381 16.6605 71.0254 81.6773C70.9058 81.8792 70.7861 82.0811 70.6664 82.283C70.5567 82.468 70.457 82.6362 70.3473 82.8213C32.2121 148.562 53.5369 232.658 118.313 271.626L173.607 304.405L206.586 248.771L152.078 216.459C135.141 206.418 123.109 190.351 118.197 171.229C113.286 152.108 116.045 132.169 125.96 115.061L126.02 114.961L125.984 114.984Z" fill="#feeab1"/>
</svg>