<svg width="50" height="50" viewBox="0 0 50 50" fill="none" xmlns="http://www.w3.org/2000/svg">
<path d="M44.45 10.8999H15.55C12.4848 10.8999 10 13.3847 10 16.4499V44.4499C10 47.5151 12.4848 49.9999 15.55 49.9999H44.45C47.5152 49.9999 50 47.5151 50 44.4499V16.4499C50 13.3847 47.5152 10.8999 44.45 10.8999Z" fill="#FFE5A3"/>
<path d="M15.9001 2.7L18.5501 10.9H27.2001C28.1001 10.9 28.4501 12.05 27.7501 12.55L20.7501 17.65L23.4001 25.85C23.7001 26.7 22.7001 27.4 22.0001 26.9L15.0001 21.8L8.00006 26.9C7.30006 27.45 6.30006 26.7 6.60006 25.85L9.25006 17.65L2.25006 12.55C1.55006 12 1.90006 10.9 2.80006 10.9H11.4501L14.1001 2.7C14.4001 1.85 15.6001 1.85 15.8501 2.7H15.9001Z" fill="url(#paint0_linear_6175_3295)"/>
<defs>
<linearGradient id="paint0_linear_6175_3295" x1="1.87891" y1="27.088" x2="33.1024" y2="13.5569" gradientUnits="userSpaceOnUse">
<stop stop-color="#FFC403"/>
<stop offset="1" stop-color="#FC94FF"/>
</linearGradient>
</defs>
</svg>
