<svg width="80" height="80" viewBox="0 0 80 80" fill="none" xmlns="http://www.w3.org/2000/svg">
<g clip-path="url(#clip0_7214_12705)">
<path d="M65.4725 49.5447C71.0468 49.5447 75.5657 45.0258 75.5657 39.4515C75.5657 33.8772 71.0468 29.3584 65.4725 29.3584C59.8982 29.3584 55.3794 33.8772 55.3794 39.4515C55.3794 45.0258 59.8982 49.5447 65.4725 49.5447Z" fill="#FC94FF"/>
<path d="M65.4724 49.917C73.4901 49.917 80.0001 56.427 80.0001 64.4447V69.8194H50.9624V64.4447C50.9624 56.427 57.4724 49.917 65.4901 49.917H65.4724Z" fill="#FC94FF"/>
<path d="M14.5277 49.5447C20.102 49.5447 24.6208 45.0258 24.6208 39.4515C24.6208 33.8772 20.102 29.3584 14.5277 29.3584C8.95342 29.3584 4.43457 33.8772 4.43457 39.4515C4.43457 45.0258 8.95342 49.5447 14.5277 49.5447Z" fill="#E26AE2"/>
<path d="M14.5277 49.917C22.5455 49.917 29.0554 56.427 29.0554 64.4447V69.8194H0V64.4447C0 56.427 6.50998 49.917 14.5277 49.917Z" fill="#E26AE2"/>
<path d="M40.1777 39.2743C48.593 39.2743 55.4149 32.4524 55.4149 24.0371C55.4149 15.6218 48.593 8.7998 40.1777 8.7998C31.7624 8.7998 24.9404 15.6218 24.9404 24.0371C24.9404 32.4524 31.7624 39.2743 40.1777 39.2743Z" fill="#FDD7FE"/>
<path d="M40.1774 39.8066C52.2572 39.8066 62.0665 49.616 62.0665 61.6958V69.82H18.2705V61.6958C18.2705 49.616 28.0798 39.8066 40.1597 39.8066H40.1774Z" fill="#FDD7FE"/>
</g>
<defs>
<clipPath id="clip0_7214_12705">
<rect width="80" height="80" fill="white"/>
</clipPath>
</defs>
</svg>
