<svg width="170" height="313" viewBox="0 0 170 313" fill="none" xmlns="http://www.w3.org/2000/svg">
<path d="M75.5458 117.458C85.7788 100.069 101.974 87.7389 121.097 82.753C137.637 78.4275 154.728 80.0266 170 87.2071V17.2082C113.613 4.62602 52.199 29.5513 20.5874 83.2259C20.4677 83.4334 20.348 83.6409 20.2283 83.8484C20.1186 84.0385 20.0189 84.2114 19.9092 84.4016C-18.226 151.968 3.09876 238.4 67.8748 278.451L123.169 312.14L156.148 254.961L101.64 221.751C84.7028 211.432 72.6708 194.918 67.7588 175.265C62.8478 155.613 65.6068 135.12 75.5228 117.537L75.5818 117.434L75.5458 117.458Z" fill="#FFE5A3"/>
</svg>
